<svg xmlns="http://www.w3.org/2000/svg" xmlns:xlink="http://www.w3.org/1999/xlink" contentStyleType="text/css" data-diagram-type="DESCRIPTION" height="1055px" preserveAspectRatio="none" style="width:1001px;height:1055px;background:#FFFFFF;" version="1.1" viewBox="0 0 1001 1055" width="1001px" zoomAndPan="magnify"><?plantuml 1.2026.6?><defs/><g><g class="title" data-source-line="2"><text fill="#000000" font-family="sans-serif" font-size="14" font-weight="700" lengthAdjust="spacing" textLength="317.3789" x="338.5605" y="23.5352">Source-Wire Self-Hosted Runtime Boundary</text></g><!--cluster SW--><g class="cluster" data-qualified-name="SW" data-source-line="36" id="ent0005"><path d="M489,247.4883 L627.0947,247.4883 A3.75,3.75 0 0 1 629.5947,249.9883 L636.5947,286.4648 L710,286.4648 A2.5,2.5 0 0 1 712.5,288.9648 L712.5,484.9883 A2.5,2.5 0 0 1 710,487.4883 L489,487.4883 A2.5,2.5 0 0 1 486.5,484.9883 L486.5,249.9883 A2.5,2.5 0 0 1 489,247.4883" fill="#FFFFFF" style="stroke:#6B7280;stroke-width:1.5;"/><line style="stroke:#6B7280;stroke-width:1.5;" x1="486.5" x2="636.5947" y1="286.4648" y2="286.4648"/><text fill="#111827" font-family="sans-serif" font-size="14" font-weight="700" lengthAdjust="spacing" textLength="137.0947" x="490.5" y="263.0234">Public Source-Wire</text><text fill="#111827" font-family="sans-serif" font-size="14" font-weight="700" lengthAdjust="spacing" textLength="83.5352" x="517.2798" y="279.5117">Apache-2.0</text></g><!--cluster Engine--><g class="cluster" data-qualified-name="Engine" data-source-line="43" id="ent0009"><path d="M759,648.4883 L973.4932,648.4883 A3.75,3.75 0 0 1 975.9932,650.9883 L982.9932,703.9531 L983,703.9531 A2.5,2.5 0 0 1 985.5,706.4531 L985.5,927.9883 A2.5,2.5 0 0 1 983,930.4883 L759,930.4883 A2.5,2.5 0 0 1 756.5,927.9883 L756.5,650.9883 A2.5,2.5 0 0 1 759,648.4883" fill="#FFFFFF" style="stroke:#6B7280;stroke-width:1.5;"/><line style="stroke:#6B7280;stroke-width:1.5;" x1="756.5" x2="982.9932" y1="703.9531" y2="703.9531"/><text fill="#111827" font-family="sans-serif" font-size="14" font-weight="700" lengthAdjust="spacing" textLength="204.0732" x="765.21" y="664.0234">Separate Runtime Candidate</text><text fill="#111827" font-family="sans-serif" font-size="14" font-weight="700" lengthAdjust="spacing" textLength="213.4932" x="760.5" y="680.5117">Source-Wire-Memory-Engine</text><text fill="#111827" font-family="sans-serif" font-size="14" font-weight="700" lengthAdjust="spacing" textLength="55.0156" x="839.7388" y="697">AGPLv3</text></g><!--cluster OwnerEnv--><g class="cluster" data-qualified-name="OwnerEnv" data-source-line="48" id="ent0012"><path d="M360,826.4883 L564.4648,826.4883 A3.75,3.75 0 0 1 566.9648,828.9883 L573.9648,865.4648 L746,865.4648 A2.5,2.5 0 0 1 748.5,867.9648 L748.5,1044.9883 A2.5,2.5 0 0 1 746,1047.4883 L360,1047.4883 A2.5,2.5 0 0 1 357.5,1044.9883 L357.5,828.9883 A2.5,2.5 0 0 1 360,826.4883" fill="#FFFFFF" style="stroke:#6B7280;stroke-width:1.5;"/><line style="stroke:#6B7280;stroke-width:1.5;" x1="357.5" x2="573.9648" y1="865.4648" y2="865.4648"/><text fill="#111827" font-family="sans-serif" font-size="14" font-weight="700" lengthAdjust="spacing" textLength="203.4648" x="361.5" y="842.0234">Owner-Hosted Environment</text><text fill="#111827" font-family="sans-serif" font-size="14" font-weight="700" lengthAdjust="spacing" textLength="199.623" x="363.4209" y="858.5117">BYO device / server / cloud</text></g><!--entity Owner--><g class="entity" data-qualified-name="Owner" data-source-line="30" id="ent0001"><ellipse cx="373.4404" cy="696.9883" fill="#F1F1F1" rx="8" ry="8" style="stroke:#181818;stroke-width:0.5;"/><path d="M373.4404,704.9883 L373.4404,731.9883 M360.4404,712.9883 L386.4404,712.9883 M373.4404,731.9883 L360.4404,746.9883 M373.4404,731.9883 L386.4404,746.9883" fill="none" style="stroke:#181818;stroke-width:0.5;"/><text fill="#000000" font-family="sans-serif" font-size="14" lengthAdjust="spacing" textLength="102.8809" x="322" y="762.0234">Memory Owner</text><text fill="#000000" font-family="sans-serif" font-size="14" lengthAdjust="spacing" textLength="73.4043" x="322" y="778.5117">or Adopter</text></g><!--entity Harness--><g class="entity" data-qualified-name="Harness" data-source-line="31" id="ent0002"><ellipse cx="817.5391" cy="286.9883" fill="#F1F1F1" rx="8" ry="8" style="stroke:#181818;stroke-width:0.5;"/><path d="M817.5391,294.9883 L817.5391,321.9883 M804.5391,302.9883 L830.5391,302.9883 M817.5391,321.9883 L804.5391,336.9883 M817.5391,321.9883 L830.5391,336.9883" fill="none" style="stroke:#181818;stroke-width:0.5;"/><text fill="#000000" font-family="sans-serif" font-size="14" lengthAdjust="spacing" textLength="99.0527" x="722" y="352.0234">Agent Harness</text><text fill="#000000" font-family="sans-serif" font-size="14" lengthAdjust="spacing" textLength="191.0781" x="722" y="368.5117">Codex / Claude / OpenClaw</text></g><!--entity PrivateProof--><g class="entity" data-qualified-name="PrivateProof" data-source-line="33" id="ent0003"><rect fill="#F9FAFB" height="52.9766" rx="2.5" ry="2.5" style="stroke:#2F3A45;stroke-width:0.5;" width="169.2627" x="687" y="41.4883"/><text fill="#111827" font-family="sans-serif" font-size="14" lengthAdjust="spacing" textLength="138.2979" x="697" y="65.0234">Private Proof System</text><text fill="#111827" font-family="sans-serif" font-size="14" lengthAdjust="spacing" textLength="149.2627" x="697" y="81.5117">real data stays private</text></g><!--entity RedactionGate--><g class="entity" data-qualified-name="RedactionGate" data-source-line="34" id="ent0004"><rect fill="#F9FAFB" height="52.9766" rx="2.5" ry="2.5" style="stroke:#2F3A45;stroke-width:0.5;" width="253.6455" x="472.5" y="149.4883"/><text fill="#111827" font-family="sans-serif" font-size="14" lengthAdjust="spacing" textLength="102.252" x="482.5" y="173.0234">Redaction Gate</text><text fill="#111827" font-family="sans-serif" font-size="14" lengthAdjust="spacing" textLength="233.6455" x="482.5" y="189.5117">only public-safe lessons move out</text></g><!--entity LicenseGate--><g class="entity" data-qualified-name="LicenseGate" data-source-line="41" id="ent0008"><rect fill="#FFF7ED" height="69.4648" rx="2.5" ry="2.5" style="stroke:#2F3A45;stroke-width:0.5;" width="280.1689" x="666.5" y="534.4883"/><text fill="#111827" font-family="sans-serif" font-size="14" lengthAdjust="spacing" textLength="85.4219" x="676.5" y="558.0234">License Gate</text><text fill="#111827" font-family="sans-serif" font-size="14" lengthAdjust="spacing" textLength="256.6074" x="676.5" y="574.5117">AGPLv3 code is audited/wrapped first</text><text fill="#111827" font-family="sans-serif" font-size="14" lengthAdjust="spacing" textLength="260.1689" x="676.5" y="591">not copied into Apache-2.0 by default</text></g><g class="entity" data-qualified-name="GMN28" data-source-line="71" id="ent0029"><path d="M6,980.4883 L6,1036.4199 L348.8135,1036.4199 L348.8135,990.4883 L338.8135,980.4883 L6,980.4883" fill="#FFF7ED" style="stroke:#9A3412;stroke-width:0.5;"/><path d="M338.8135,980.4883 L338.8135,990.4883 L348.8135,990.4883 L338.8135,980.4883" fill="#FFF7ED" style="stroke:#9A3412;stroke-width:1;"/><text fill="#000000" font-family="sans-serif" font-size="13" lengthAdjust="spacing" textLength="135.5161" x="12" y="998.0566">Default product path:</text><text fill="#000000" font-family="sans-serif" font-size="13" lengthAdjust="spacing" textLength="321.8135" x="12" y="1013.3672">Source-Wire does not host other people's memory.</text><text fill="#000000" font-family="sans-serif" font-size="13" lengthAdjust="spacing" textLength="210.228" x="12" y="1028.6777">Each owner brings infrastructure.</text></g><g class="entity" data-qualified-name="GMN31" data-source-line="77" id="ent0032"><path d="M745,155.4883 L745,196.1094 A0,0 0 0 0 745,196.1094 L970.4644,196.1094 A0,0 0 0 0 970.4644,196.1094 L970.4644,165.4883 L960.4644,155.4883 L845.4501,155.4883 L792.3182,94.6479 L837.4501,155.4883 L745,155.4883 A0,0 0 0 0 745,155.4883" fill="#FFF7ED" style="stroke:#9A3412;stroke-width:0.5;"/><path d="M960.4644,155.4883 L960.4644,165.4883 L970.4644,165.4883 L960.4644,155.4883" fill="#FFF7ED" style="stroke:#9A3412;stroke-width:0.5;"/><text fill="#000000" font-family="sans-serif" font-size="13" lengthAdjust="spacing" textLength="195.1143" x="751" y="173.0566">No private owner or client data</text><text fill="#000000" font-family="sans-serif" font-size="13" lengthAdjust="spacing" textLength="204.4644" x="751" y="188.3672">in public Source-Wire examples.</text></g><!--entity Contracts--><g class="entity" data-qualified-name="SW.Contracts" data-source-line="37" id="ent0006"><rect fill="#F9FAFB" height="69.4648" rx="2.5" ry="2.5" style="stroke:#2F3A45;stroke-width:0.5;" width="209.2529" x="495" y="290.4883"/><text fill="#111827" font-family="sans-serif" font-size="14" lengthAdjust="spacing" textLength="143.9375" x="505" y="314.0234">Contracts + schemas</text><text fill="#111827" font-family="sans-serif" font-size="14" lengthAdjust="spacing" textLength="118.1182" x="505" y="330.5117">synthetic fixtures</text><text fill="#111827" font-family="sans-serif" font-size="14" lengthAdjust="spacing" textLength="189.2529" x="505" y="347">minimal synthetic boundary</text></g><!--entity Wrapper--><g class="entity" data-qualified-name="SW.Wrapper" data-source-line="38" id="ent0007"><rect fill="#F9FAFB" height="52.9766" rx="2.5" ry="2.5" style="stroke:#2F3A45;stroke-width:0.5;" width="135.3223" x="549" y="426.4883"/><text fill="#111827" font-family="sans-serif" font-size="14" lengthAdjust="spacing" textLength="103.4756" x="559" y="450.0234">Future wrapper</text><text fill="#111827" font-family="sans-serif" font-size="14" lengthAdjust="spacing" textLength="115.3223" x="559" y="466.5117">API + MCP policy</text></g><!--entity EngineApi--><g class="entity" data-qualified-name="Engine.EngineApi" data-source-line="44" id="ent0010"><rect fill="#F9FAFB" height="52.9766" rx="2.5" ry="2.5" style="stroke:#2F3A45;stroke-width:0.5;" width="118.5127" x="786" y="708.4883"/><text fill="#111827" font-family="sans-serif" font-size="14" lengthAdjust="spacing" textLength="98.5127" x="796" y="732.0234">FastAPI + MCP</text><text fill="#111827" font-family="sans-serif" font-size="14" lengthAdjust="spacing" textLength="93.6318" x="796" y="748.5117">memory tools</text></g><!--entity EngineAi--><g class="entity" data-qualified-name="Engine.EngineAi" data-source-line="45" id="ent0011"><rect fill="#F9FAFB" height="52.9766" rx="2.5" ry="2.5" style="stroke:#2F3A45;stroke-width:0.5;" width="167.5537" x="764.5" y="869.4883"/><text fill="#111827" font-family="sans-serif" font-size="14" lengthAdjust="spacing" textLength="77.0615" x="774.5" y="893.0234">RLM search</text><text fill="#111827" font-family="sans-serif" font-size="14" lengthAdjust="spacing" textLength="147.5537" x="774.5" y="909.5117">embeddings + rerank</text></g><!--entity OwnerRuntime--><g class="entity" data-qualified-name="OwnerEnv.OwnerRuntime" data-source-line="49" id="ent0013"><rect fill="#F9FAFB" height="52.9766" rx="2.5" ry="2.5" style="stroke:#2F3A45;stroke-width:0.5;" width="121.5684" x="538.5" y="869.4883"/><text fill="#111827" font-family="sans-serif" font-size="14" lengthAdjust="spacing" textLength="101.5684" x="548.5" y="893.0234">Owner runtime</text><text fill="#111827" font-family="sans-serif" font-size="14" lengthAdjust="spacing" textLength="67.3203" x="548.5" y="909.5117">processes</text></g><!--entity OwnerDb--><g class="entity" data-qualified-name="OwnerEnv.OwnerDb" data-source-line="50" id="ent0014"><path d="M575.5,987.4883 C575.5,977.4883 638.7075,977.4883 638.7075,977.4883 C638.7075,977.4883 701.915,977.4883 701.915,987.4883 L701.915,1029.4648 C701.915,1039.4648 638.7075,1039.4648 638.7075,1039.4648 C638.7075,1039.4648 575.5,1039.4648 575.5,1029.4648 L575.5,987.4883" fill="#EEF2FF" style="stroke:#374151;stroke-width:0.5;"/><path d="M575.5,987.4883 C575.5,997.4883 638.7075,997.4883 638.7075,997.4883 C638.7075,997.4883 701.915,997.4883 701.915,987.4883" fill="none" style="stroke:#374151;stroke-width:0.5;"/><text fill="#000000" font-family="sans-serif" font-size="14" lengthAdjust="spacing" textLength="106.415" x="585.5" y="1015.0234">Owner Postgres</text><text fill="#000000" font-family="sans-serif" font-size="14" lengthAdjust="spacing" textLength="74.8809" x="585.5" y="1031.5117">+ pgvector</text></g><!--entity OwnerInputs--><g class="entity" data-qualified-name="OwnerEnv.OwnerInputs" data-source-line="51" id="ent0015"><rect fill="#F9FAFB" height="52.9766" rx="2.5" ry="2.5" style="stroke:#2F3A45;stroke-width:0.5;" width="120.5703" x="367" y="981.9883"/><text fill="#111827" font-family="sans-serif" font-size="14" lengthAdjust="spacing" textLength="100.5703" x="377" y="1005.5234">Owner sources</text><text fill="#111827" font-family="sans-serif" font-size="14" lengthAdjust="spacing" textLength="85.9551" x="377" y="1022.0117">and API keys</text></g><g class="link" data-entity-1="ent0001" data-entity-2="ent0012" data-link-type="dependency" id="lnk16"><polygon fill="#181818" points="373.5,826.1467,377.5,817.1467,373.5,821.1467,369.5,817.1467,373.5,826.1467" style="stroke:#181818;stroke-width:1;stroke-linejoin:miter;stroke-miterlimit:10;"/><path d="M373.5,781.5513 C373.5,790.3608 373.5,799.8548 373.5,809.4669 C373.5,814.2729 373.5,819.1084 373.5,823.9027 C373.5,824.502 373.5,825.1006 373.5,825.6985 C373.5,825.8479 373.5,820.9973 373.5,821.1467" fill="none" style="stroke:#181818;stroke-width:1;"/><text fill="#000000" font-family="sans-serif" font-size="13" lengthAdjust="spacing" textLength="111.0015" x="375.5" y="814.0566">runs and controls</text></g><g class="link" data-entity-1="ent0002" data-entity-2="ent0007" data-link-type="dependency" id="lnk17"><polygon fill="#181818" points="684.1133,428.5119,693.9613,428.6406,688.7085,426.5411,690.808,421.2883,684.1133,428.5119" style="stroke:#181818;stroke-width:1;stroke-linejoin:miter;stroke-miterlimit:10;"/><path d="M771.6405,371.6868 C757.049,384.6803 740.3117,398.106 723.5,408.4883 C711.301,416.0219 702.1647,420.7698 688.7085,426.5411" fill="none" style="stroke:#181818;stroke-width:1;"/><text fill="#000000" font-family="sans-serif" font-size="13" lengthAdjust="spacing" textLength="159.1484" x="751.5" y="404.0566">calls tools through policy</text></g><g class="link" data-entity-1="ent0003" data-entity-2="ent0004" data-link-type="dependency" id="lnk18"><polygon fill="#181818" points="641.0507,149.3814,650.8112,148.0649,645.3073,146.7582,646.614,141.2543,641.0507,149.3814" style="stroke:#181818;stroke-width:1;stroke-linejoin:miter;stroke-miterlimit:10;"/><path d="M729.8636,94.6479 C702.9203,111.2525 672.2336,130.1641 645.3073,146.7582" fill="none" style="stroke:#181818;stroke-width:1;"/><text fill="#000000" font-family="sans-serif" font-size="13" lengthAdjust="spacing" textLength="65.3682" x="703.5" y="127.0566">generalize</text></g><g class="link" data-entity-1="ent0004" data-entity-2="ent0006" data-link-type="dependency" id="lnk19"><polygon fill="#181818" points="599.5,290.4017,603.5,281.4017,599.5,285.4017,595.5,281.4017,599.5,290.4017" style="stroke:#181818;stroke-width:1;stroke-linejoin:miter;stroke-miterlimit:10;"/><path d="M599.5,202.5937 C599.5,226.9423 599.5,258.7114 599.5,285.4017" fill="none" style="stroke:#181818;stroke-width:1;stroke-dasharray:7,7;"/><text fill="#000000" font-family="sans-serif" font-size="13" lengthAdjust="spacing" textLength="153.7212" x="601.5" y="235.0566">public-safe lessons only</text></g><g class="link" data-entity-1="ent0006" data-entity-2="ent0007" data-link-type="dependency" id="lnk20"><polygon fill="#181818" points="613.0107,426.1267,615.7714,416.6727,612.3422,421.1716,607.8433,417.7424,613.0107,426.1267" style="stroke:#181818;stroke-width:1;stroke-linejoin:miter;stroke-miterlimit:10;"/><path d="M604.0557,359.754 C606.8685,380.6022 609.7533,401.9835 612.3422,421.1716" fill="none" style="stroke:#181818;stroke-width:1;"/><text fill="#000000" font-family="sans-serif" font-size="13" lengthAdjust="spacing" textLength="104.4761" x="613.5" y="404.0566">defines behavior</text></g><g class="link" data-entity-1="ent0007" data-entity-2="ent0013" data-link-type="dependency" id="lnk21"><polygon fill="#181818" points="598.2226,869.3209,601.816,860.1509,597.999,864.3259,593.824,860.5088,598.2226,869.3209" style="stroke:#181818;stroke-width:1;stroke-linejoin:miter;stroke-miterlimit:10;"/><path d="M612.664,479.7364 C607.9858,512.5551 600.3496,571.0843 597.5,621.4883 C592.354,712.512 595.8283,815.8489 597.999,864.3259" fill="none" style="stroke:#181818;stroke-width:1;"/><text fill="#000000" font-family="sans-serif" font-size="13" lengthAdjust="spacing" textLength="218.7021" x="599.5" y="636.0566">future self-hosted implementation</text></g><g class="link" data-entity-1="ent0007" data-entity-2="ent0008" data-link-type="dependency" id="lnk22"><polygon fill="#181818" points="750.6545,534.481,744.995,526.4205,746.367,531.9085,740.8791,533.2805,750.6545,534.481" style="stroke:#181818;stroke-width:1;stroke-linejoin:miter;stroke-miterlimit:10;"/><path d="M659.1397,479.5721 C686.1642,495.7868 717.1221,514.3615 746.367,531.9085" fill="none" style="stroke:#181818;stroke-width:1;stroke-dasharray:7,7;"/><text fill="#000000" font-family="sans-serif" font-size="13" lengthAdjust="spacing" textLength="123.3604" x="719.5" y="512.0566">runtime fit decision</text></g><g class="link" data-entity-1="ent0008" data-entity-2="ent0010" data-link-type="dependency" id="lnk23"><polygon fill="#181818" points="841.4257,708.3136,843.8751,698.7742,840.5951,703.3831,835.9863,700.1031,841.4257,708.3136" style="stroke:#181818;stroke-width:1;stroke-linejoin:miter;stroke-miterlimit:10;"/><path d="M818.2691,603.604 C820.1489,609.5252 821.9743,615.6587 823.5,621.4883 C831.2094,650.945 836.7313,680.4454 840.5951,703.3831" fill="none" style="stroke:#181818;stroke-width:1;stroke-dasharray:7,7;"/><text fill="#000000" font-family="sans-serif" font-size="13" lengthAdjust="spacing" textLength="167.1528" x="829.5" y="636.0566">audit or adapter candidate</text></g><g class="link" data-entity-1="ent0010" data-entity-2="ent0011" data-link-type="dependency" id="lnk24"><polygon fill="#181818" points="848.0142,869.242,851.8437,860.1681,847.9199,864.2429,843.8452,860.319,848.0142,869.242" style="stroke:#181818;stroke-width:1;stroke-linejoin:miter;stroke-miterlimit:10;"/><path d="M845.982,761.5344 C846.5402,791.1177 847.3601,834.5747 847.9199,864.2429" fill="none" style="stroke:#181818;stroke-width:1;"/><text fill="#000000" font-family="sans-serif" font-size="13" lengthAdjust="spacing" textLength="100.3818" x="848.5" y="814.0566">search + rerank</text></g><g class="link" data-entity-1="ent0011" data-entity-2="ent0014" data-link-type="dependency" id="lnk25"><polygon fill="#181818" points="701.6529,987.9475,711.4758,988.6626,706.3573,986.2539,708.766,981.1355,701.6529,987.9475" style="stroke:#181818;stroke-width:1;stroke-linejoin:miter;stroke-miterlimit:10;"/><path d="M819.1995,922.6743 C804.1711,934.9529 785.1418,949.1825 766.5,959.4883 C746.2486,970.6839 727.5606,978.6206 706.3573,986.2539" fill="none" style="stroke:#181818;stroke-width:1;"/><text fill="#000000" font-family="sans-serif" font-size="13" lengthAdjust="spacing" textLength="130.6729" x="796.5" y="955.0566">vector memory store</text></g><g class="link" data-entity-1="ent0013" data-entity-2="ent0014" data-link-type="dependency" id="lnk26"><polygon fill="#181818" points="627.8431,977.2937,628.6197,967.4755,626.179,972.5787,621.0757,970.138,627.8431,977.2937" style="stroke:#181818;stroke-width:1;stroke-linejoin:miter;stroke-miterlimit:10;"/><path d="M608.5454,922.6169 C614.3059,938.9384 620.1305,955.4412 626.179,972.5787" fill="none" style="stroke:#181818;stroke-width:1;"/><text fill="#000000" font-family="sans-serif" font-size="13" lengthAdjust="spacing" textLength="137.1348" x="623.5" y="955.0566">stores owner memory</text></g><g class="link" data-entity-1="ent0013" data-entity-2="ent0015" data-link-type="dependency" id="lnk27"><polygon fill="#181818" points="416.2446,981.8498,417.4746,972.0781,414.8004,977.0629,409.8156,974.3887,416.2446,981.8498" style="stroke:#181818;stroke-width:1;stroke-linejoin:miter;stroke-miterlimit:10;"/><path d="M538.2788,903.7006 C492.0766,910.176 434.2147,921.794 419.5,940.4883 C410.4431,951.9946 410.694,963.4515 414.8004,977.0629" fill="none" style="stroke:#181818;stroke-width:1;"/><text fill="#000000" font-family="sans-serif" font-size="13" lengthAdjust="spacing" textLength="189.6553" x="421.5" y="955.0566">imports owner-approved data</text></g><g class="link" data-entity-1="ent0012" data-entity-2="ent0029" data-link-type="association" id="lnk30"><path d="M357.2951,906.1242 C356.3111,906.679 355.2895,907.2549 354.2321,907.851 C350.0028,910.2354 345.2023,912.9418 339.9596,915.8976 C329.474,921.809 317.2192,928.718 304.2254,936.0436 C278.2376,950.6949 249.2937,967.0128 225.6352,980.3508" fill="none" style="stroke:#181818;stroke-width:1;stroke-dasharray:7,7;"/></g><?plantuml-src ZLPDRziu4BtpLync3tiedDPEqhGv570SkosGR8pa41JmXPB6DX6954ZAYRlO_xwFrATJ5zXS8W_d3MVUl1dfZzBAJI4fbtjJUN85UwcbyChdJ8-ciYcFdfJ5C-VhqJVZF6VqK6cl2gPhK-bCshqGtfJa3IN6UrDG1a3gbT52k6UbIsbbGObCdpSs86OcDvR-NCI_WOVRoioyABsXjSmT3qwqoTXnIUSN0wEL-ZaOBuR6r1IbqQpzez-ZWf27r9jy6AopqJ-2K8FDs3OfJHPdKzn1j33QDxRnUFnfSXayVodWysAwk1R_3cANy96R8v4_NbzEFdtutv5hQeQHC-bb8jsHq6UNv-EByR4my_bYyYQCDlv8YC_Ji_Fnv3UPNCvl44B8rCDmSiU5iNkwVz5iLngMQMPAp_Q4fAkjhUTqWpRGDsarExVIC_JmbTxJB9TLndYuBrdZnqj4Dcv2zDqvMLgraqXtQOrPq-CUsYjMshBC8nlalDmxAckl6AL1HC0mqWDdCWgIlk8OQUjyJsMLv2eTERbcod6tqOuAisF28CHe7Ig0X6XxUxACmE5qhFGKfriUJKu_HEZZKoHvaC8CVRS8v-WTERWM4foulVPRzWYsLg--iWnReRGgK69_bZHZ5YDtSGx3Bwe0fnShop8qPhhyZelkPaig3PAjiK_rQUZc07ghKjOGLatDzEloTdU6EKAFb2FqIc7atzU1C-HfdLzfo0WkfO95QGn-NpubUyfuBQky9h697e9tQkgfVEGWInorAsKcTQQocCc0tr6jkj5SRvJkaepnQzDRjXVI-Ou2S5gBrXkJkm5gMgf3sCFj7JcMDjskD1S9PncsKUYOvR1jXb0LMEpgYC9lr-DSxvGrk5I3gUiVz-1Z1nOWUSTsnnOFQMwgh1yP8DvM4EraQrfMkhGcXKRPzQ26Ci2wtT2WbiXZ4yNqZihDZiCyzhYRvDXDBh8D21f0WRfdtWyk-wxB2ff3pRNxQFIbJ_qgv0cj09a6UO9bqGnqT6nq1xzKvhch-q1-YqMpsJO25M8ul15sC7y0Ov-W3RdwoUBmwFJqIpyNS3mssM7aXUYz3lE2Oj5KHmblvKuPAzgZhivMe5UqhaVDXHVYjkwuAigSGxzbVEkru93NKFzNRJynHXvtfie5zw5BW7JY123E7s6Toao6DGi6cm4HlLj8ifKbCBM2EzMAxgWhvYQ1MwqBQcR3uPcRxhQr7lf73n0P-r-ZVkDUYmKGy6AiRp0Za6AnNxEeLo7YgwZvOa37MpM9ctfxOB6Rh4hnN_hjbHX-YsG6UOGL5EWdWpLfgMI37lpbcinEnHmRgKasiN6CbLvRx0MBe6ZWgM3eDIJnIoe7hv6_JVkAQQA1ipHNuTqMwr2wqTl1vnA_og09DxZbFm00?></g></svg>